<?xml version="1.0" encoding="UTF-8"?>
<!DOCTYPE svg PUBLIC "-//W3C//DTD SVG 1.1//EN" "http://www.w3.org/Graphics/SVG/1.1/DTD/svg11.dtd">
<svg xmlns="http://www.w3.org/2000/svg" version="1.1" width="512px" height="512px" style="shape-rendering:geometricPrecision; text-rendering:geometricPrecision; image-rendering:optimizeQuality; fill-rule:evenodd; clip-rule:evenodd" xmlns:xlink="http://www.w3.org/1999/xlink">
<g><path style="opacity:0.986" fill="#FA6BFF" d="M 100.5,16.5 C 79.3399,17.4973 58.0065,17.8306 36.5,17.5C 51.4889,7.62286 67.8222,4.78953 85.5,9C 91.0848,10.459 96.0848,12.959 100.5,16.5 Z"/></g>
<g><path style="opacity:0.979" fill="#FA6BFF" d="M 100.5,16.5 C 108.289,22.0887 113.622,29.4221 116.5,38.5C 110.69,39.4896 104.69,39.8229 98.5,39.5C 89.8885,26.7065 77.8885,21.8731 62.5,25C 46.5527,28.787 34.8861,37.9537 27.5,52.5C 21.5,52.5 15.5,52.5 9.5,52.5C 14.4183,37.5939 23.4183,25.9272 36.5,17.5C 58.0065,17.8306 79.3399,17.4973 100.5,16.5 Z"/></g>
<g><path style="opacity:0.995" fill="#FA6BFF" d="M 503.5,52.5 C 498.167,52.5 492.833,52.5 487.5,52.5C 487.5,48.1667 487.5,43.8333 487.5,39.5C 428.833,39.5 370.167,39.5 311.5,39.5C 306.167,39.5 300.833,39.5 295.5,39.5C 295.177,31.9807 298.51,26.814 305.5,24C 368.167,23.3333 430.833,23.3333 493.5,24C 498,25.8333 501.167,29 503,33.5C 503.5,39.8246 503.666,46.1579 503.5,52.5 Z"/></g>
<g><path style="opacity:0.998" fill="#FA6BFF" d="M 116.5,38.5 C 176.095,39.4959 235.762,39.8292 295.5,39.5C 300.833,39.5 306.167,39.5 311.5,39.5C 311.5,43.8333 311.5,48.1667 311.5,52.5C 241.833,52.5 172.167,52.5 102.5,52.5C 102.245,47.8095 100.912,43.4761 98.5,39.5C 104.69,39.8229 110.69,39.4896 116.5,38.5 Z"/></g>
<g><path style="opacity:0.969" fill="#FA6BFF" d="M 58.5,62.5 C 52.5,62.5 46.5,62.5 40.5,62.5C 43.6855,50.4817 51.3521,42.9817 63.5,40C 66.146,39.5026 68.8127,39.3359 71.5,39.5C 71.5,45.1667 71.5,50.8333 71.5,56.5C 66.276,56.6125 61.9427,58.6125 58.5,62.5 Z"/></g>
<g><path style="opacity:0.993" fill="#FA6BFF" d="M 102.5,52.5 C 172.167,52.5 241.833,52.5 311.5,52.5C 311.5,63.5 311.5,74.5 311.5,85.5C 306.167,85.5 300.833,85.5 295.5,85.5C 295.5,75.5 295.5,65.5 295.5,55.5C 236.833,55.5 178.167,55.5 119.5,55.5C 119.813,59.0419 119.479,62.3752 118.5,65.5C 118.5,64.5 118.5,63.5 118.5,62.5C 113.167,62.5 107.833,62.5 102.5,62.5C 102.5,59.1667 102.5,55.8333 102.5,52.5 Z"/></g>
<g><path style="opacity:0.972" fill="#FA6BFF" d="M 9.5,52.5 C 15.5,52.5 21.5,52.5 27.5,52.5C 24.9902,60.2859 23.9902,68.2859 24.5,76.5C 18.8333,76.5 13.1667,76.5 7.5,76.5C 7.11387,68.3871 7.78054,60.3871 9.5,52.5 Z"/></g>
<g><path style="opacity:0.974" fill="#FA6BFF" d="M 391.5,76.5 C 385.833,76.5 380.167,76.5 374.5,76.5C 369.833,71.1667 365.167,71.1667 360.5,76.5C 354.833,76.5 349.167,76.5 343.5,76.5C 347.056,59.7071 357.39,52.8738 374.5,56C 384.391,59.3865 390.058,66.2198 391.5,76.5 Z"/></g>
<g><path style="opacity:0.987" fill="#FA6BFF" d="M 455.5,76.5 C 449.833,76.5 444.167,76.5 438.5,76.5C 434.533,72.2882 429.533,70.6215 423.5,71.5C 423.5,73.1667 423.5,74.8333 423.5,76.5C 418.167,76.5 412.833,76.5 407.5,76.5C 407.5,69.5 407.5,62.5 407.5,55.5C 418.91,55.0666 430.244,55.5666 441.5,57C 449.886,60.878 454.552,67.378 455.5,76.5 Z"/></g>
<g><path style="opacity:1" fill="#FA6BFF" d="M 487.5,52.5 C 492.833,52.5 498.167,52.5 503.5,52.5C 503.5,60.5 503.5,68.5 503.5,76.5C 498.167,76.5 492.833,76.5 487.5,76.5C 487.5,68.5 487.5,60.5 487.5,52.5 Z"/></g>
<g><path style="opacity:0.976" fill="#FA6BFF" d="M 40.5,62.5 C 46.5,62.5 52.5,62.5 58.5,62.5C 53.7802,72.9388 56.4469,80.7721 66.5,86C 84.7607,87.5473 96.7607,79.714 102.5,62.5C 107.833,62.5 113.167,62.5 118.5,62.5C 118.5,63.5 118.5,64.5 118.5,65.5C 116.503,76.4954 111.17,85.4954 102.5,92.5C 83.9924,92.1698 65.6591,92.5032 47.5,93.5C 39.7763,84.4923 37.4429,74.159 40.5,62.5 Z"/></g>
<g><path style="opacity:0.993" fill="#FA6BFF" d="M 407.5,76.5 C 412.833,76.5 418.167,76.5 423.5,76.5C 423.5,80.1667 423.5,83.8333 423.5,87.5C 428.08,87.8866 432.414,87.0532 436.5,85C 438.179,82.4355 438.846,79.6021 438.5,76.5C 444.167,76.5 449.833,76.5 455.5,76.5C 456.565,83.3994 454.898,89.3994 450.5,94.5C 436.411,96.4565 422.077,97.1232 407.5,96.5C 407.5,89.8333 407.5,83.1667 407.5,76.5 Z"/></g>
<g><path style="opacity:0.984" fill="#FA6BFF" d="M 450.5,94.5 C 454.896,101.136 456.563,108.469 455.5,116.5C 449.402,117.117 443.735,116.45 438.5,114.5C 439.511,108.674 437.178,105.174 431.5,104C 428.854,103.503 426.187,103.336 423.5,103.5C 423.5,107.833 423.5,112.167 423.5,116.5C 418.167,116.5 412.833,116.5 407.5,116.5C 407.5,109.833 407.5,103.167 407.5,96.5C 422.077,97.1232 436.411,96.4565 450.5,94.5 Z"/></g>
<g><path style="opacity:0.973" fill="#FA6BFF" d="M 295.5,85.5 C 300.833,85.5 306.167,85.5 311.5,85.5C 311.5,95.8333 311.5,106.167 311.5,116.5C 306.167,116.5 300.833,116.5 295.5,116.5C 295.719,115.325 295.386,114.325 294.5,113.5C 265.221,99.8816 236.555,101.215 208.5,117.5C 200.35,116.507 192.017,116.174 183.5,116.5C 199.4,100.384 218.733,90.8845 241.5,88C 259.738,85.7795 277.405,87.9462 294.5,94.5C 295.484,91.5719 295.817,88.5719 295.5,85.5 Z"/></g>
<g><path style="opacity:0.962" fill="#FA6BFF" d="M 7.5,76.5 C 13.1667,76.5 18.8333,76.5 24.5,76.5C 26.5214,91.5503 33.8547,103.217 46.5,111.5C 38.5994,112.195 30.5994,112.862 22.5,113.5C 13.3653,102.89 8.36529,90.5567 7.5,76.5 Z"/></g>
<g><path style="opacity:0.951" fill="#FA6BFF" d="M 102.5,92.5 C 89.23,103.698 74.23,106.532 57.5,101C 53.6997,99.0211 50.3664,96.5211 47.5,93.5C 65.6591,92.5032 83.9924,92.1698 102.5,92.5 Z"/></g>
<g><path style="opacity:1" fill="#FA6BFF" d="M 343.5,76.5 C 349.167,76.5 354.833,76.5 360.5,76.5C 359.585,85.4596 359.252,94.4596 359.5,103.5C 364.833,103.5 370.167,103.5 375.5,103.5C 375.748,94.4596 375.415,85.4596 374.5,76.5C 380.167,76.5 385.833,76.5 391.5,76.5C 391.5,89.8333 391.5,103.167 391.5,116.5C 375.5,116.5 359.5,116.5 343.5,116.5C 343.5,103.167 343.5,89.8333 343.5,76.5 Z"/></g>
<g><path style="opacity:1" fill="#FA6BFF" d="M 487.5,76.5 C 492.833,76.5 498.167,76.5 503.5,76.5C 503.5,89.8333 503.5,103.167 503.5,116.5C 498.167,116.5 492.833,116.5 487.5,116.5C 487.5,103.167 487.5,89.8333 487.5,76.5 Z"/></g>
<g><path style="opacity:0.983" fill="#FA6BFF" d="M 438.5,114.5 C 443.735,116.45 449.402,117.117 455.5,116.5C 453.637,124.534 448.971,130.367 441.5,134C 430.244,135.433 418.91,135.933 407.5,135.5C 407.5,129.167 407.5,122.833 407.5,116.5C 412.833,116.5 418.167,116.5 423.5,116.5C 423.5,117.5 423.5,118.5 423.5,119.5C 429.533,120.378 434.533,118.712 438.5,114.5 Z"/></g>
<g><path style="opacity:0.99" fill="#FA6BFF" d="M 46.5,111.5 C 54.0752,116.301 62.4085,118.801 71.5,119C 107.833,119.667 144.167,119.667 180.5,119C 181.373,117.955 182.373,117.122 183.5,116.5C 192.017,116.174 200.35,116.507 208.5,117.5C 200.578,122.753 193.578,129.086 187.5,136.5C 180.412,136.795 173.412,136.462 166.5,135.5C 135.427,135.175 104.427,135.508 73.5,136.5C 67.2079,135.947 61.2079,136.614 55.5,138.5C 55.9662,136.799 55.9662,135.299 55.5,134C 42.1938,130.69 31.1938,123.857 22.5,113.5C 30.5994,112.862 38.5994,112.195 46.5,111.5 Z"/></g>
<g><path style="opacity:0.976" fill="#FA6BFF" d="M 295.5,116.5 C 300.833,116.5 306.167,116.5 311.5,116.5C 311.5,122.833 311.5,129.167 311.5,135.5C 277.5,135.5 243.5,135.5 209.5,135.5C 231.587,118.603 255.92,114.769 282.5,124C 286.66,125.912 290.66,128.079 294.5,130.5C 295.493,125.88 295.827,121.214 295.5,116.5 Z"/></g>
<g><path style="opacity:1" fill="#FA6BFF" d="M 343.5,116.5 C 359.5,116.5 375.5,116.5 391.5,116.5C 391.5,122.833 391.5,129.167 391.5,135.5C 386.167,135.5 380.833,135.5 375.5,135.5C 375.5,130.167 375.5,124.833 375.5,119.5C 370.167,119.5 364.833,119.5 359.5,119.5C 359.5,124.833 359.5,130.167 359.5,135.5C 354.167,135.5 348.833,135.5 343.5,135.5C 343.5,129.167 343.5,122.833 343.5,116.5 Z"/></g>
<g><path style="opacity:1" fill="#FA6BFF" d="M 487.5,116.5 C 492.833,116.5 498.167,116.5 503.5,116.5C 503.5,123.167 503.5,129.833 503.5,136.5C 498.167,136.5 492.833,136.5 487.5,136.5C 487.5,129.833 487.5,123.167 487.5,116.5 Z"/></g>
<g><path style="opacity:0.969" fill="#FA6BFF" d="M 73.5,136.5 C 71.1193,144.262 68.4526,151.929 65.5,159.5C 59.5,159.5 53.5,159.5 47.5,159.5C 49.3996,152.124 52.0663,145.124 55.5,138.5C 61.2079,136.614 67.2079,135.947 73.5,136.5 Z"/></g>
<g><path style="opacity:0.971" fill="#FA6BFF" d="M 166.5,135.5 C 173.412,136.462 180.412,136.795 187.5,136.5C 182.159,143.174 177.825,150.507 174.5,158.5C 168.409,158.789 162.409,158.455 156.5,157.5C 159.3,149.903 162.633,142.569 166.5,135.5 Z"/></g>
<g><path style="opacity:0.98" fill="#FA6BFF" d="M 209.5,135.5 C 243.5,135.5 277.5,135.5 311.5,135.5C 311.5,143.167 311.5,150.833 311.5,158.5C 306.167,158.5 300.833,158.5 295.5,158.5C 295.662,156.473 295.495,154.473 295,152.5C 286.35,144.367 276.183,139.034 264.5,136.5C 263.503,144.138 263.169,151.804 263.5,159.5C 258.167,159.5 252.833,159.5 247.5,159.5C 247.831,151.804 247.497,144.138 246.5,136.5C 231.903,139.789 219.903,147.122 210.5,158.5C 204.077,158.791 197.744,158.458 191.5,157.5C 195.639,148.69 201.639,141.356 209.5,135.5 Z"/></g>
<g><path style="opacity:0.997" fill="#FA6BFF" d="M 487.5,136.5 C 492.833,136.5 498.167,136.5 503.5,136.5C 503.666,143.508 503.5,150.508 503,157.5C 502.392,159.066 501.558,160.4 500.5,161.5C 445.51,159.504 390.177,158.837 334.5,159.5C 335.212,157.072 336.212,154.739 337.5,152.5C 387.496,151.5 437.496,151.167 487.5,151.5C 487.5,146.5 487.5,141.5 487.5,136.5 Z"/></g>
<g><path style="opacity:0.972" fill="#FA6BFF" d="M 47.5,159.5 C 53.5,159.5 59.5,159.5 65.5,159.5C 62.5584,166.385 59.8917,173.385 57.5,180.5C 51.5,180.5 45.5,180.5 39.5,180.5C 41.3996,173.124 44.0663,166.124 47.5,159.5 Z"/></g>
<g><path style="opacity:0.978" fill="#FA6BFF" d="M 156.5,157.5 C 162.409,158.455 168.409,158.789 174.5,158.5C 171.564,166.242 169.564,174.242 168.5,182.5C 162.925,181.548 157.259,181.214 151.5,181.5C 152.401,173.329 154.067,165.329 156.5,157.5 Z"/></g>
<g><path style="opacity:0.963" fill="#FA6BFF" d="M 191.5,157.5 C 197.744,158.458 204.077,158.791 210.5,158.5C 206.543,165.021 203.543,172.021 201.5,179.5C 195.734,180.804 190.067,180.804 184.5,179.5C 185.231,171.642 187.564,164.308 191.5,157.5 Z"/></g>
<g><path style="opacity:0.975" fill="#FA6BFF" d="M 247.5,159.5 C 252.833,159.5 258.167,159.5 263.5,159.5C 263.183,162.572 263.516,165.572 264.5,168.5C 270.544,171.21 274.877,175.543 277.5,181.5C 262.833,181.5 248.167,181.5 233.5,181.5C 236.123,175.543 240.456,171.21 246.5,168.5C 247.484,165.572 247.817,162.572 247.5,159.5 Z"/></g>
<g><path style="opacity:0.997" fill="#FA6BFF" d="M 295.5,158.5 C 300.833,158.5 306.167,158.5 311.5,158.5C 311.025,166.312 311.692,173.979 313.5,181.5C 307.402,180.883 301.735,181.55 296.5,183.5C 295.507,175.35 295.174,167.017 295.5,158.5 Z"/></g>
<g><path style="opacity:0.994" fill="#FA6BFF" d="M 334.5,159.5 C 390.177,158.837 445.51,159.504 500.5,161.5C 498.929,164.231 496.595,166.065 493.5,167C 448.168,167.5 402.835,167.667 357.5,167.5C 358.051,170.807 358.384,174.14 358.5,177.5C 358.5,178.5 358.5,179.5 358.5,180.5C 352.974,180.179 347.64,180.512 342.5,181.5C 342.167,181.5 341.833,181.5 341.5,181.5C 335.833,180.833 330.167,180.167 324.5,179.5C 327.325,172.516 330.659,165.849 334.5,159.5 Z"/></g>
<g><path style="opacity:0.961" fill="#FA6BFF" d="M 39.5,180.5 C 45.5,180.5 51.5,180.5 57.5,180.5C 54.6772,187.654 51.6772,194.654 48.5,201.5C 43.0247,200.511 37.358,200.178 31.5,200.5C 33.5999,193.518 36.2666,186.852 39.5,180.5 Z"/></g>
<g><path style="opacity:0.975" fill="#FA6BFF" d="M 151.5,181.5 C 157.259,181.214 162.925,181.548 168.5,182.5C 168.5,189.167 168.5,195.833 168.5,202.5C 163.044,200.857 157.377,199.857 151.5,199.5C 151.5,193.5 151.5,187.5 151.5,181.5 Z"/></g>
<g><path style="opacity:0.984" fill="#FA6BFF" d="M 184.5,179.5 C 190.067,180.804 195.734,180.804 201.5,179.5C 201.461,180.583 201.127,181.583 200.5,182.5C 205.833,182.833 211.167,183.167 216.5,183.5C 222.41,183.452 228.076,182.786 233.5,181.5C 248.167,181.5 262.833,181.5 277.5,181.5C 279.019,184.526 279.685,187.859 279.5,191.5C 279.685,195.141 279.019,198.474 277.5,201.5C 262.676,200.504 247.676,200.171 232.5,200.5C 221.833,199.167 211.167,199.167 200.5,200.5C 194.833,200.5 189.167,200.5 183.5,200.5C 183.175,193.313 183.509,186.313 184.5,179.5 Z M 252.5,184.5 C 261.85,184.365 264.517,188.532 260.5,197C 251.956,200.322 248.123,197.489 249,188.5C 249.69,186.65 250.856,185.316 252.5,184.5 Z"/></g>
<g><path style="opacity:0.977" fill="#FA6BFF" d="M 324.5,179.5 C 330.167,180.167 335.833,180.833 341.5,181.5C 339.524,188.805 335.191,194.138 328.5,197.5C 327.614,198.325 327.281,199.325 327.5,200.5C 321.741,200.786 316.075,200.452 310.5,199.5C 306.834,197.228 303.334,194.561 300,191.5C 298.007,189.182 296.841,186.516 296.5,183.5C 301.735,181.55 307.402,180.883 313.5,181.5C 317.697,183.302 321.364,182.635 324.5,179.5 Z"/></g>
<g><path style="opacity:0.961" fill="#FA6BFF" d="M 358.5,177.5 C 359.492,184.982 359.825,192.648 359.5,200.5C 353.741,200.214 348.075,200.548 342.5,201.5C 342.5,194.833 342.5,188.167 342.5,181.5C 347.64,180.512 352.974,180.179 358.5,180.5C 358.5,179.5 358.5,178.5 358.5,177.5 Z"/></g>
<g><path style="opacity:0.962" fill="#FA6BFF" d="M 130.5,201.5 C 112.243,200.514 93.9098,200.18 75.5,200.5C 72.5276,195.243 71.1943,189.576 71.5,183.5C 77.1667,183.5 82.8333,183.5 88.5,183.5C 89.16,192.827 94.16,197.827 103.5,198.5C 112.84,197.827 117.84,192.827 118.5,183.5C 124.167,183.5 129.833,183.5 135.5,183.5C 135.835,190.15 134.168,196.15 130.5,201.5 Z"/></g>
<g><path style="opacity:0.958" fill="#FA6BFF" d="M 183.5,200.5 C 189.167,200.5 194.833,200.5 200.5,200.5C 202.194,207.588 204.861,214.254 208.5,220.5C 202.167,220.5 195.833,220.5 189.5,220.5C 186.28,214.306 184.28,207.64 183.5,200.5 Z"/></g>
<g><path style="opacity:0.964" fill="#FA6BFF" d="M 31.5,200.5 C 37.358,200.178 43.0247,200.511 48.5,201.5C 46.5633,208.31 44.2299,214.977 41.5,221.5C 35.7322,220.874 30.0655,220.207 24.5,219.5C 26.2621,212.873 28.5955,206.539 31.5,200.5 Z"/></g>
<g><path style="opacity:0.947" fill="#FA6BFF" d="M 75.5,200.5 C 93.9098,200.18 112.243,200.514 130.5,201.5C 121.877,213.327 110.21,217.827 95.5,215C 86.9668,212.619 80.3001,207.785 75.5,200.5 Z"/></g>
<g><path style="opacity:0.968" fill="#FA6BFF" d="M 151.5,199.5 C 157.377,199.857 163.044,200.857 168.5,202.5C 169.832,208.496 171.166,214.496 172.5,220.5C 166.833,220.5 161.167,220.5 155.5,220.5C 152.999,213.843 151.666,206.843 151.5,199.5 Z"/></g>
<g><path style="opacity:0.97" fill="#FA6BFF" d="M 232.5,200.5 C 247.676,200.171 262.676,200.504 277.5,201.5C 274.877,207.457 270.544,211.79 264.5,214.5C 263.534,216.396 263.201,218.396 263.5,220.5C 258.167,220.5 252.833,220.5 247.5,220.5C 247.799,218.396 247.466,216.396 246.5,214.5C 240.145,211.478 235.478,206.812 232.5,200.5 Z"/></g>
<g><path style="opacity:0.964" fill="#FA6BFF" d="M 359.5,200.5 C 359.011,207.457 357.678,214.124 355.5,220.5C 349.833,220.5 344.167,220.5 338.5,220.5C 339.991,214.201 341.325,207.868 342.5,201.5C 348.075,200.548 353.741,200.214 359.5,200.5 Z"/></g>
<g><path style="opacity:0.979" fill="#FA6BFF" d="M 310.5,199.5 C 316.075,200.452 321.741,200.786 327.5,200.5C 326.253,208.487 323.919,216.154 320.5,223.5C 322.098,225.698 323.431,228.031 324.5,230.5C 309.833,230.5 295.167,230.5 280.5,230.5C 284.964,219.419 293.297,214.086 305.5,214.5C 307.771,209.687 309.438,204.687 310.5,199.5 Z"/></g>
<g><path style="opacity:0.994" fill="#FA6BFF" d="M 24.5,219.5 C 30.0655,220.207 35.7322,220.874 41.5,221.5C 39.9312,224.582 40.2645,227.415 42.5,230C 52.0862,231.42 61.7529,231.92 71.5,231.5C 71.5,233.833 71.5,236.167 71.5,238.5C 56.8333,238.5 42.1667,238.5 27.5,238.5C 25.5905,237.025 24.4238,235.025 24,232.5C 23.1864,227.98 23.353,223.646 24.5,219.5 Z"/></g>
<g><path style="opacity:0.988" fill="#FA6BFF" d="M 27.5,238.5 C 42.1667,238.5 56.8333,238.5 71.5,238.5C 71.5,243.5 71.5,248.5 71.5,253.5C 66.1667,253.5 60.8333,253.5 55.5,253.5C 55.5,251.5 55.5,249.5 55.5,247.5C 49.8236,247.666 44.1569,247.499 38.5,247C 33.6053,245.575 29.9386,242.742 27.5,238.5 Z"/></g>
<g><path style="opacity:0.964" fill="#FA6BFF" d="M 155.5,220.5 C 161.167,220.5 166.833,220.5 172.5,220.5C 177.461,232.795 184.461,243.795 193.5,253.5C 186.412,253.205 179.412,253.538 172.5,254.5C 164.212,244.59 158.545,233.256 155.5,220.5 Z"/></g>
<g><path style="opacity:0.996" fill="#FA6BFF" d="M 189.5,220.5 C 195.833,220.5 202.167,220.5 208.5,220.5C 217.574,234.213 230.241,242.88 246.5,246.5C 247.498,237.859 247.831,229.192 247.5,220.5C 252.833,220.5 258.167,220.5 263.5,220.5C 263.169,229.192 263.502,237.859 264.5,246.5C 269.308,245.231 273.974,243.564 278.5,241.5C 279.233,237.796 279.9,234.129 280.5,230.5C 295.167,230.5 309.833,230.5 324.5,230.5C 325.735,233.301 327.235,235.968 329,238.5C 332.465,232.565 335.632,226.565 338.5,220.5C 344.167,220.5 349.833,220.5 355.5,220.5C 353.004,229.654 349.337,238.321 344.5,246.5C 394.163,247.333 443.83,247.833 493.5,248C 496.936,249.274 499.603,251.441 501.5,254.5C 440.208,253.508 378.875,253.174 317.5,253.5C 314.108,247.72 310.941,241.72 308,235.5C 304.287,231.513 300.62,231.513 297,235.5C 295.639,241.407 295.139,247.407 295.5,253.5C 269.833,253.5 244.167,253.5 218.5,253.5C 204.941,245.94 195.275,234.94 189.5,220.5 Z"/></g>
<g><path style="opacity:0.975" fill="#FA6BFF" d="M 218.5,253.5 C 244.167,253.5 269.833,253.5 295.5,253.5C 295.5,256.833 295.5,260.167 295.5,263.5C 290.167,263.5 284.833,263.5 279.5,263.5C 279.5,262.5 279.5,261.5 279.5,260.5C 262.349,264.91 245.349,264.41 228.5,259C 224.944,257.392 221.611,255.559 218.5,253.5 Z"/></g>
<g><path style="opacity:0.995" fill="#FA6BFF" d="M 317.5,253.5 C 378.875,253.174 440.208,253.508 501.5,254.5C 501.987,255.473 502.487,256.473 503,257.5C 503.5,266.16 503.666,274.827 503.5,283.5C 498.167,283.5 492.833,283.5 487.5,283.5C 487.5,276.833 487.5,270.167 487.5,263.5C 432.163,263.833 376.829,263.5 321.5,262.5C 319.88,259.596 318.547,256.596 317.5,253.5 Z"/></g>
<g><path style="opacity:0.994" fill="#FA6BFF" d="M 55.5,253.5 C 60.8333,253.5 66.1667,253.5 71.5,253.5C 71.5,256.833 71.5,260.167 71.5,263.5C 92.5026,263.333 113.503,263.5 134.5,264C 143.933,267.263 149.599,273.763 151.5,283.5C 145.5,283.5 139.5,283.5 133.5,283.5C 132.025,281.59 130.025,280.424 127.5,280C 108.836,279.5 90.1696,279.333 71.5,279.5C 71.5,280.833 71.5,282.167 71.5,283.5C 66.1667,283.5 60.8333,283.5 55.5,283.5C 55.5,273.5 55.5,263.5 55.5,253.5 Z"/></g>
<g><path style="opacity:0.97" fill="#FA6BFF" d="M 193.5,253.5 C 217.985,276.037 246.318,283.371 278.5,275.5C 279.491,271.555 279.824,267.555 279.5,263.5C 284.833,263.5 290.167,263.5 295.5,263.5C 295.5,270.167 295.5,276.833 295.5,283.5C 265.995,283.169 236.662,283.502 207.5,284.5C 193.403,277.408 181.736,267.408 172.5,254.5C 179.412,253.538 186.412,253.205 193.5,253.5 Z"/></g>
<g><path style="opacity:1" fill="#FA6BFF" d="M 55.5,283.5 C 60.8333,283.5 66.1667,283.5 71.5,283.5C 71.4183,290.858 71.7516,298.191 72.5,305.5C 66.6226,305.857 60.956,306.857 55.5,308.5C 55.5,300.167 55.5,291.833 55.5,283.5 Z"/></g>
<g><path style="opacity:0.996" fill="#FA6BFF" d="M 133.5,283.5 C 139.5,283.5 145.5,283.5 151.5,283.5C 151.5,291.167 151.5,298.833 151.5,306.5C 146.167,306.5 140.833,306.5 135.5,306.5C 136.019,298.656 135.353,290.989 133.5,283.5 Z"/></g>
<g><path style="opacity:0.981" fill="#FA6BFF" d="M 207.5,284.5 C 236.662,283.502 265.995,283.169 295.5,283.5C 295.5,290.167 295.5,296.833 295.5,303.5C 286.318,303.827 277.318,303.493 268.5,302.5C 270.628,299.87 272.961,297.37 275.5,295C 251.715,298.341 229.049,294.841 207.5,284.5 Z"/></g>
<g><path style="opacity:1" fill="#FA6BFF" d="M 343.5,306.5 C 338.167,306.5 332.833,306.5 327.5,306.5C 327.5,297.5 327.5,288.5 327.5,279.5C 332.833,279.5 338.167,279.5 343.5,279.5C 343.5,288.5 343.5,297.5 343.5,306.5 Z"/></g>
<g><path style="opacity:1" fill="#FA6BFF" d="M 375.5,306.5 C 370.167,306.5 364.833,306.5 359.5,306.5C 359.5,297.5 359.5,288.5 359.5,279.5C 364.833,279.5 370.167,279.5 375.5,279.5C 375.5,288.5 375.5,297.5 375.5,306.5 Z"/></g>
<g><path style="opacity:1" fill="#FA6BFF" d="M 423.5,306.5 C 418.167,306.5 412.833,306.5 407.5,306.5C 407.5,297.5 407.5,288.5 407.5,279.5C 412.833,279.5 418.167,279.5 423.5,279.5C 423.5,288.5 423.5,297.5 423.5,306.5 Z"/></g>
<g><path style="opacity:1" fill="#FA6BFF" d="M 455.5,306.5 C 450.167,306.5 444.833,306.5 439.5,306.5C 439.5,297.5 439.5,288.5 439.5,279.5C 444.833,279.5 450.167,279.5 455.5,279.5C 455.5,288.5 455.5,297.5 455.5,306.5 Z"/></g>
<g><path style="opacity:1" fill="#FA6BFF" d="M 487.5,283.5 C 492.833,283.5 498.167,283.5 503.5,283.5C 503.5,291.167 503.5,298.833 503.5,306.5C 498.167,306.5 492.833,306.5 487.5,306.5C 487.5,298.833 487.5,291.167 487.5,283.5 Z"/></g>
<g><path style="opacity:0.972" fill="#FA6BFF" d="M 72.5,305.5 C 76.5616,318.899 85.5616,325.899 99.5,326.5C 88.3456,327.495 77.0123,327.828 65.5,327.5C 60.3551,322.214 57.0218,315.881 55.5,308.5C 60.956,306.857 66.6226,305.857 72.5,305.5 Z"/></g>
<g><path style="opacity:0.976" fill="#FA6BFF" d="M 175.5,326.5 C 152.661,326.831 129.994,326.497 107.5,325.5C 116.601,323.975 125.601,321.975 134.5,319.5C 135.492,315.217 135.826,310.884 135.5,306.5C 140.833,306.5 146.167,306.5 151.5,306.5C 151.5,309.5 151.5,312.5 151.5,315.5C 156.959,314.969 162.292,313.802 167.5,312C 170.609,305.487 173.609,298.987 176.5,292.5C 180.796,294.099 185.129,295.599 189.5,297C 190.428,297.388 191.095,298.055 191.5,299C 189.531,305.242 187.364,311.409 185,317.5C 182.6,321.402 179.434,324.402 175.5,326.5 Z"/></g>
<g><path style="opacity:0.982" fill="#FA6BFF" d="M 268.5,302.5 C 277.318,303.493 286.318,303.827 295.5,303.5C 295.5,311.5 295.5,319.5 295.5,327.5C 290.167,327.5 284.833,327.5 279.5,327.5C 279.665,323.818 279.499,320.152 279,316.5C 275.323,320.546 272.156,324.879 269.5,329.5C 264.265,327.55 258.598,326.883 252.5,327.5C 255.574,317.676 260.908,309.343 268.5,302.5 Z"/></g>
<g><path style="opacity:1" fill="#FA6BFF" d="M 327.5,306.5 C 332.833,306.5 338.167,306.5 343.5,306.5C 343.5,313.5 343.5,320.5 343.5,327.5C 338.167,327.5 332.833,327.5 327.5,327.5C 327.5,320.5 327.5,313.5 327.5,306.5 Z"/></g>
<g><path style="opacity:1" fill="#FA6BFF" d="M 359.5,306.5 C 364.833,306.5 370.167,306.5 375.5,306.5C 375.5,308.167 375.5,309.833 375.5,311.5C 386.167,311.5 396.833,311.5 407.5,311.5C 407.5,309.833 407.5,308.167 407.5,306.5C 412.833,306.5 418.167,306.5 423.5,306.5C 423.5,313.5 423.5,320.5 423.5,327.5C 418.167,327.5 412.833,327.5 407.5,327.5C 396.833,327.5 386.167,327.5 375.5,327.5C 370.167,327.5 364.833,327.5 359.5,327.5C 359.5,320.5 359.5,313.5 359.5,306.5 Z"/></g>
<g><path style="opacity:1" fill="#FA6BFF" d="M 439.5,306.5 C 444.833,306.5 450.167,306.5 455.5,306.5C 455.5,313.5 455.5,320.5 455.5,327.5C 450.167,327.5 444.833,327.5 439.5,327.5C 439.5,320.5 439.5,313.5 439.5,306.5 Z"/></g>
<g><path style="opacity:1" fill="#FA6BFF" d="M 487.5,306.5 C 492.833,306.5 498.167,306.5 503.5,306.5C 503.5,313.167 503.5,319.833 503.5,326.5C 498.167,326.5 492.833,326.5 487.5,326.5C 487.5,319.833 487.5,313.167 487.5,306.5 Z"/></g>
<g><path style="opacity:1" fill="#FA6BFF" d="M 215.5,311.5 C 220.833,311.5 226.167,311.5 231.5,311.5C 231.5,316.833 231.5,322.167 231.5,327.5C 226.167,327.5 220.833,327.5 215.5,327.5C 215.5,322.167 215.5,316.833 215.5,311.5 Z"/></g>
<g><path style="opacity:0.977" fill="#FA6BFF" d="M 107.5,325.5 C 129.994,326.497 152.661,326.831 175.5,326.5C 173.316,328.585 170.649,329.585 167.5,329.5C 167.5,335.5 167.5,341.5 167.5,347.5C 162.167,347.5 156.833,347.5 151.5,347.5C 151.5,354.167 151.5,360.833 151.5,367.5C 151.5,368.167 151.167,368.5 150.5,368.5C 150.667,356.829 150.5,345.162 150,333.5C 136.59,336.894 123.09,340.06 109.5,343C 96.5044,345.426 84.5044,343.093 73.5,336C 70.0785,333.808 67.4118,330.975 65.5,327.5C 77.0123,327.828 88.3456,327.495 99.5,326.5C 102.279,326.721 104.946,326.388 107.5,325.5 Z"/></g>
<g><path style="opacity:1" fill="#FA6BFF" d="M 359.5,327.5 C 364.833,327.5 370.167,327.5 375.5,327.5C 375.5,332.833 375.5,338.167 375.5,343.5C 386.167,343.5 396.833,343.5 407.5,343.5C 407.5,338.167 407.5,332.833 407.5,327.5C 412.833,327.5 418.167,327.5 423.5,327.5C 423.5,334.167 423.5,340.833 423.5,347.5C 402.167,347.5 380.833,347.5 359.5,347.5C 359.5,340.833 359.5,334.167 359.5,327.5 Z M 375.5,327.5 C 386.167,327.5 396.833,327.5 407.5,327.5C 407.5,332.833 407.5,338.167 407.5,343.5C 396.833,343.5 386.167,343.5 375.5,343.5C 375.5,338.167 375.5,332.833 375.5,327.5 Z"/></g>
<g><path style="opacity:0.983" fill="#FA6BFF" d="M 190.5,367.5 C 177.5,367.5 164.5,367.5 151.5,367.5C 151.5,360.833 151.5,354.167 151.5,347.5C 156.833,347.5 162.167,347.5 167.5,347.5C 167.176,351.555 167.509,355.555 168.5,359.5C 172.865,357.901 177.031,355.901 181,353.5C 181.862,351.913 182.529,350.246 183,348.5C 183.5,341.508 183.666,334.508 183.5,327.5C 188.833,327.5 194.167,327.5 199.5,327.5C 199.666,336.839 199.5,346.173 199,355.5C 197.875,360.763 195.042,364.763 190.5,367.5 Z"/></g>
<g><path style="opacity:1" fill="#FA6BFF" d="M 215.5,343.5 C 220.833,343.5 226.167,343.5 231.5,343.5C 231.5,348.833 231.5,354.167 231.5,359.5C 226.167,359.5 220.833,359.5 215.5,359.5C 215.5,354.167 215.5,348.833 215.5,343.5 Z"/></g>
<g><path style="opacity:0.998" fill="#FA6BFF" d="M 252.5,327.5 C 258.598,326.883 264.265,327.55 269.5,329.5C 264.932,341.704 262.932,354.371 263.5,367.5C 258.167,367.5 252.833,367.5 247.5,367.5C 247.334,358.827 247.5,350.16 248,341.5C 248.595,336.423 250.095,331.756 252.5,327.5 Z"/></g>
<g><path style="opacity:1" fill="#FA6BFF" d="M 279.5,327.5 C 284.833,327.5 290.167,327.5 295.5,327.5C 295.5,340.833 295.5,354.167 295.5,367.5C 290.167,367.5 284.833,367.5 279.5,367.5C 279.5,354.167 279.5,340.833 279.5,327.5 Z"/></g>
<g><path style="opacity:1" fill="#FA6BFF" d="M 327.5,343.5 C 332.833,343.5 338.167,343.5 343.5,343.5C 343.5,348.833 343.5,354.167 343.5,359.5C 338.167,359.5 332.833,359.5 327.5,359.5C 327.5,354.167 327.5,348.833 327.5,343.5 Z"/></g>
<g><path style="opacity:1" fill="#FA6BFF" d="M 359.5,347.5 C 380.833,347.5 402.167,347.5 423.5,347.5C 423.5,351.5 423.5,355.5 423.5,359.5C 402.167,359.5 380.833,359.5 359.5,359.5C 359.5,355.5 359.5,351.5 359.5,347.5 Z"/></g>
<g><path style="opacity:1" fill="#FA6BFF" d="M 439.5,343.5 C 444.833,343.5 450.167,343.5 455.5,343.5C 455.5,348.833 455.5,354.167 455.5,359.5C 450.167,359.5 444.833,359.5 439.5,359.5C 439.5,354.167 439.5,348.833 439.5,343.5 Z"/></g>
<g><path style="opacity:1" fill="#FA6BFF" d="M 487.5,326.5 C 492.833,326.5 498.167,326.5 503.5,326.5C 503.5,340.167 503.5,353.833 503.5,367.5C 498.167,367.5 492.833,367.5 487.5,367.5C 487.5,353.833 487.5,340.167 487.5,326.5 Z"/></g>
<g><path style="opacity:0.969" fill="#FA6BFF" d="M 151.5,367.5 C 164.5,367.5 177.5,367.5 190.5,367.5C 177.383,373.892 164.383,380.559 151.5,387.5C 142.983,387.826 134.65,387.493 126.5,386.5C 133.628,379.377 141.628,373.377 150.5,368.5C 151.167,368.5 151.5,368.167 151.5,367.5 Z"/></g>
<g><path style="opacity:0.995" fill="#FA6BFF" d="M 247.5,367.5 C 252.833,367.5 258.167,367.5 263.5,367.5C 263.187,370.247 263.52,372.914 264.5,375.5C 269.585,376.473 274.418,378.139 279,380.5C 279.499,376.179 279.666,371.846 279.5,367.5C 284.833,367.5 290.167,367.5 295.5,367.5C 295.5,370.167 295.5,372.833 295.5,375.5C 359.5,375.5 423.5,375.5 487.5,375.5C 487.5,372.833 487.5,370.167 487.5,367.5C 492.833,367.5 498.167,367.5 503.5,367.5C 503.666,372.179 503.499,376.845 503,381.5C 502.065,384.595 500.231,386.929 497.5,388.5C 405.5,387.833 313.5,387.167 221.5,386.5C 228.915,380.964 237.248,377.297 246.5,375.5C 247.48,372.914 247.813,370.247 247.5,367.5 Z"/></g>
<g><path style="opacity:0.983" fill="#FA6BFF" d="M 221.5,386.5 C 313.5,387.167 405.5,387.833 497.5,388.5C 496.4,389.558 495.066,390.392 493.5,391C 427.5,391.333 361.5,391.667 295.5,392C 301.456,397.41 305.789,403.91 308.5,411.5C 302.31,411.177 296.31,411.51 290.5,412.5C 276.038,392.05 257.371,387.217 234.5,398C 228.93,402.068 224.263,406.902 220.5,412.5C 214.69,411.51 208.69,411.177 202.5,411.5C 206.181,401.152 212.514,392.819 221.5,386.5 Z"/></g>
<g><path style="opacity:0.974" fill="#FA6BFF" d="M 126.5,386.5 C 134.65,387.493 142.983,387.826 151.5,387.5C 141.931,394.729 132.931,402.729 124.5,411.5C 117.5,411.5 110.5,411.5 103.5,411.5C 109.388,401.609 117.055,393.275 126.5,386.5 Z"/></g>
<g><path style="opacity:0.975" fill="#FA6BFF" d="M 279.5,431.5 C 274.167,431.5 268.833,431.5 263.5,431.5C 263.737,430.209 263.404,429.209 262.5,428.5C 259.331,424.356 255.331,423.523 250.5,426C 249.418,427.33 248.751,428.83 248.5,430.5C 242.925,431.452 237.259,431.786 231.5,431.5C 233.543,412.975 243.876,405.142 262.5,408C 273.802,411.796 279.468,419.629 279.5,431.5 Z"/></g>
<g><path style="opacity:0.98" fill="#FA6BFF" d="M 103.5,411.5 C 110.5,411.5 117.5,411.5 124.5,411.5C 114.058,424.053 105.391,437.719 98.5,452.5C 92.8333,451.833 87.1667,451.167 81.5,450.5C 86.544,436.065 93.8773,423.065 103.5,411.5 Z"/></g>
<g><path style="opacity:1" fill="#FA6BFF" d="M 202.5,411.5 C 208.69,411.177 214.69,411.51 220.5,412.5C 216.149,425.097 214.482,438.097 215.5,451.5C 210.167,451.5 204.833,451.5 199.5,451.5C 199.334,441.161 199.5,430.828 200,420.5C 200.739,417.454 201.572,414.454 202.5,411.5 Z"/></g>
<g><path style="opacity:0.983" fill="#FA6BFF" d="M 262.5,428.5 C 263.404,429.209 263.737,430.209 263.5,431.5C 268.833,431.5 274.167,431.5 279.5,431.5C 277.457,450.025 267.124,457.858 248.5,455C 237.198,451.204 231.532,443.371 231.5,431.5C 237.259,431.786 242.925,431.452 248.5,430.5C 249.613,438.472 253.779,440.472 261,436.5C 262.252,433.986 262.752,431.32 262.5,428.5 Z"/></g>
<g><path style="opacity:1" fill="#FA6BFF" d="M 308.5,411.5 C 309.428,414.454 310.261,417.454 311,420.5C 311.5,430.828 311.666,441.161 311.5,451.5C 306.167,451.5 300.833,451.5 295.5,451.5C 296.518,438.097 294.851,425.097 290.5,412.5C 296.31,411.51 302.31,411.177 308.5,411.5 Z"/></g>
<g><path style="opacity:0.994" fill="#FA6BFF" d="M 81.5,450.5 C 87.1667,451.167 92.8333,451.833 98.5,452.5C 94.0685,463.795 91.0685,475.462 89.5,487.5C 126.167,487.5 162.833,487.5 199.5,487.5C 199.5,475.5 199.5,463.5 199.5,451.5C 204.833,451.5 210.167,451.5 215.5,451.5C 215.5,463.5 215.5,475.5 215.5,487.5C 242.167,487.5 268.833,487.5 295.5,487.5C 295.5,475.5 295.5,463.5 295.5,451.5C 300.833,451.5 306.167,451.5 311.5,451.5C 311.5,465.5 311.5,479.5 311.5,493.5C 231.5,493.5 151.5,493.5 71.5,493.5C 72.3028,478.47 75.6361,464.136 81.5,450.5 Z"/></g>
<g><path style="opacity:0.997" fill="#FA6BFF" d="M 71.5,493.5 C 151.5,493.5 231.5,493.5 311.5,493.5C 311.5,496.833 311.5,500.167 311.5,503.5C 231.167,503.5 150.833,503.5 70.5,503.5C 70.2529,500.061 70.5863,496.728 71.5,493.5 Z"/></g>
</svg>
